HIERARCHY
ROOT Hips
{
	OFFSET 0.000000 71.427986 0.000000
	CHANNELS 6 Xposition Yposition Zposition Xrotation Yrotation Zrotation
	JOINT Pelvis
	{
		OFFSET 0.000000 0.000000 0.000000
		CHANNELS 3 Xrotation Yrotation Zrotation
		JOINT LeftUpLeg
		{
			OFFSET 6.797100 -2.508499 -1.318700
			CHANNELS 3 Xrotation Yrotation Zrotation
			JOINT LeftLeg
			{
				OFFSET 0.069008 -29.241863 0.690200
				CHANNELS 3 Xrotation Yrotation Zrotation
				JOINT LeftFoot
				{
					OFFSET -0.069008 -29.568123 -0.266800
					CHANNELS 3 Xrotation Yrotation Zrotation
					JOINT LeftToeBase
					{
						OFFSET 3.145500 -8.631000 16.059900
						CHANNELS 3 Xrotation Yrotation Zrotation
						End Site
						{
							OFFSET 0.000000 18.501587 0.000000
						}
					}
				}
			}
			JOINT Left_ShortSleeve
			{
				OFFSET 0.265923 -10.480953 1.153800
				CHANNELS 3 Xrotation Yrotation Zrotation
				End Site
				{
					OFFSET 1.725763 19.823879 0.000000
				}
			}
		}
		JOINT RightUpLeg
		{
			OFFSET -6.797100 -2.508499 -1.318700
			CHANNELS 3 Xrotation Yrotation Zrotation
			JOINT RightLeg
			{
				OFFSET -0.082453 -29.241932 0.688000
				CHANNELS 3 Xrotation Yrotation Zrotation
				JOINT RightFoot
				{
					OFFSET 0.082453 -29.568058 -0.264600
					CHANNELS 3 Xrotation Yrotation Zrotation
					JOINT RightToeBase
					{
						OFFSET -3.115300 -8.682800 16.113400
						CHANNELS 3 Xrotation Yrotation Zrotation
						End Site
						{
							OFFSET 0.000000 18.567114 0.000000
						}
					}
				}
			}
			JOINT Right_ShortSleeve
			{
				OFFSET -0.265923 -10.480953 1.153800
				CHANNELS 3 Xrotation Yrotation Zrotation
				End Site
				{
					OFFSET -1.725766 19.823910 0.000000
				}
			}
		}
	}
	JOINT Spine
	{
		OFFSET 0.000000 13.368103 0.470500
		CHANNELS 3 Xrotation Yrotation Zrotation
		JOINT Spine1
		{
			OFFSET 0.147000 13.837402 0.538800
			CHANNELS 3 Xrotation Yrotation Zrotation
			JOINT Spine2
			{
				OFFSET 0.168000 16.242897 -1.435500
				CHANNELS 3 Xrotation Yrotation Zrotation
				JOINT Neck
				{
					OFFSET 0.217200 18.631500 -1.679100
					CHANNELS 3 Xrotation Yrotation Zrotation
					JOINT Head
					{
						OFFSET 0.000000 6.599396 1.385900
						CHANNELS 3 Xrotation Yrotation Zrotation
						JOINT Hat
						{
							OFFSET -0.532200 27.220596 -10.096100
							CHANNELS 3 Xrotation Yrotation Zrotation
							End Site
							{
								OFFSET 0.000000 22.029861 0.000000
							}
						}
						JOINT HairD
						{
							OFFSET -10.777400 17.437393 -1.325900
							CHANNELS 3 Xrotation Yrotation Zrotation
							JOINT HairD1
							{
								OFFSET -3.290299 -11.051193 1.062200
								CHANNELS 3 Xrotation Yrotation Zrotation
								End Site
								{
									OFFSET 0.000000 11.579437 0.000000
								}
							}
						}
						JOINT HairB
						{
							OFFSET -10.777400 17.437393 1.467900
							CHANNELS 3 Xrotation Yrotation Zrotation
							JOINT HairB1
							{
								OFFSET -1.561200 -12.956299 3.590200
								CHANNELS 3 Xrotation Yrotation Zrotation
								End Site
								{
									OFFSET 0.000000 13.534866 0.000000
								}
							}
						}
						JOINT HairA
						{
							OFFSET 9.713100 17.437393 1.467900
							CHANNELS 3 Xrotation Yrotation Zrotation
							JOINT HairA1
							{
								OFFSET 1.561200 -12.956299 3.590200
								CHANNELS 3 Xrotation Yrotation Zrotation
								End Site
								{
									OFFSET 0.000000 13.534866 0.000000
								}
							}
						}
						JOINT HairC
						{
							OFFSET 9.713100 17.437393 -1.325900
							CHANNELS 3 Xrotation Yrotation Zrotation
							JOINT HairC1
							{
								OFFSET 3.290300 -11.051193 1.062200
								CHANNELS 3 Xrotation Yrotation Zrotation
								End Site
								{
									OFFSET 0.000000 11.579437 0.000000
								}
							}
						}
					}
				}
				JOINT LeftShoulder
				{
					OFFSET 5.101800 15.108002 -2.763700
					CHANNELS 3 Xrotation Yrotation Zrotation
					JOINT LeftArm
					{
						OFFSET 9.825497 2.506317 -1.597400
						CHANNELS 3 Xrotation Yrotation Zrotation
						JOINT LeftForeArm
						{
							OFFSET 21.966244 0.000000 0.000000
							CHANNELS 3 Xrotation Yrotation Zrotation
							JOINT LeftHand
							{
								OFFSET 33.879036 0.000000 0.000000
								CHANNELS 3 Xrotation Yrotation Zrotation
								JOINT LeftHandThumb1
								{
									OFFSET 6.715286 -2.359680 3.363841
									CHANNELS 3 Xrotation Yrotation Zrotation
									JOINT LeftHandThumb2
									{
										OFFSET 2.507072 -1.447464 1.447461
										CHANNELS 3 Xrotation Yrotation Zrotation
										JOINT LeftHandThumb3
										{
											OFFSET 2.898338 -1.673355 1.673357
											CHANNELS 3 Xrotation Yrotation Zrotation
											End Site
											{
												OFFSET -0.295959 3.727692 -0.131651
											}
										}
									}
								}
								JOINT LeftHandIndex1
								{
									OFFSET 14.190811 -0.254547 3.840278
									CHANNELS 3 Xrotation Yrotation Zrotation
									JOINT LeftHandIndex2
									{
										OFFSET 3.551727 0.000000 -0.000000
										CHANNELS 3 Xrotation Yrotation Zrotation
										JOINT LeftHandIndex3
										{
											OFFSET 2.894196 0.000000 0.000000
											CHANNELS 3 Xrotation Yrotation Zrotation
											End Site
											{
												OFFSET -1.000603 2.690872 0.366626
											}
										}
									}
								}
								JOINT LeftHandMiddle1
								{
									OFFSET 13.776489 0.000000 0.000000
									CHANNELS 3 Xrotation Yrotation Zrotation
									JOINT LeftHandMiddle2
									{
										OFFSET 3.438232 0.000000 0.000000
										CHANNELS 3 Xrotation Yrotation Zrotation
										JOINT LeftHandMiddle3
										{
											OFFSET 3.691551 0.000000 0.000000
											CHANNELS 3 Xrotation Yrotation Zrotation
											End Site
											{
												OFFSET -1.082298 3.499527 0.457670
											}
										}
									}
								}
								JOINT LeftHandRing1
								{
									OFFSET 13.966164 -0.268127 -3.067488
									CHANNELS 3 Xrotation Yrotation Zrotation
									JOINT LeftHandRing2
									{
										OFFSET 3.162567 0.000000 0.000000
										CHANNELS 3 Xrotation Yrotation Zrotation
										JOINT LeftHandRing3
										{
											OFFSET 3.324348 0.000000 0.000000
											CHANNELS 3 Xrotation Yrotation Zrotation
											End Site
											{
												OFFSET -0.861900 3.184998 0.405154
											}
										}
									}
								}
								JOINT LeftHandPinky1
								{
									OFFSET 13.131393 -0.168503 -5.746925
									CHANNELS 3 Xrotation Yrotation Zrotation
									JOINT LeftHandPinky2
									{
										OFFSET 2.849182 0.000000 0.000000
										CHANNELS 3 Xrotation Yrotation Zrotation
										JOINT LeftHandPinky3
										{
											OFFSET 2.805038 0.000000 0.000000
											CHANNELS 3 Xrotation Yrotation Zrotation
											End Site
											{
												OFFSET -0.882500 2.642609 0.325652
											}
										}
									}
								}
							}
							JOINT Left_Sleeve
							{
								OFFSET 6.592125 -0.646545 0.805568
								CHANNELS 3 Xrotation Yrotation Zrotation
								End Site
								{
									OFFSET -0.000179 20.275787 -0.000000
								}
							}
						}
					}
				}
				JOINT RightShoulder
				{
					OFFSET -5.731700 15.108002 -2.763700
					CHANNELS 3 Xrotation Yrotation Zrotation
					JOINT RightArm
					{
						OFFSET -9.825497 2.506317 -1.597400
						CHANNELS 3 Xrotation Yrotation Zrotation
						JOINT RightForeArm
						{
							OFFSET -21.966242 0.000000 0.000000
							CHANNELS 3 Xrotation Yrotation Zrotation
							JOINT RightHand
							{
								OFFSET -33.879032 0.000000 0.000000
								CHANNELS 3 Xrotation Yrotation Zrotation
								JOINT RightHandThumb1
								{
									OFFSET -6.715286 -2.359680 3.363841
									CHANNELS 3 Xrotation Yrotation Zrotation
									JOINT RightHandThumb2
									{
										OFFSET -2.507072 -1.447464 1.447461
										CHANNELS 3 Xrotation Yrotation Zrotation
										JOINT RightHandThumb3
										{
											OFFSET -2.898338 -1.673355 1.673357
											CHANNELS 3 Xrotation Yrotation Zrotation
											End Site
											{
												OFFSET 0.295959 3.727692 -0.131651
											}
										}
									}
								}
								JOINT RightHandIndex1
								{
									OFFSET -14.190811 -0.254547 3.840278
									CHANNELS 3 Xrotation Yrotation Zrotation
									JOINT RightHandIndex2
									{
										OFFSET -3.551727 0.000000 -0.000000
										CHANNELS 3 Xrotation Yrotation Zrotation
										JOINT RightHandIndex3
										{
											OFFSET -2.894196 0.000000 0.000000
											CHANNELS 3 Xrotation Yrotation Zrotation
											End Site
											{
												OFFSET 1.000603 2.690872 0.366626
											}
										}
									}
								}
								JOINT RightHandMiddle1
								{
									OFFSET -13.776489 0.000000 0.000000
									CHANNELS 3 Xrotation Yrotation Zrotation
									JOINT RightHandMiddle2
									{
										OFFSET -3.438232 0.000000 0.000000
										CHANNELS 3 Xrotation Yrotation Zrotation
										JOINT RightHandMiddle3
										{
											OFFSET -3.691551 0.000000 0.000000
											CHANNELS 3 Xrotation Yrotation Zrotation
											End Site
											{
												OFFSET 1.082298 3.499527 0.457670
											}
										}
									}
								}
								JOINT RightHandRing1
								{
									OFFSET -13.966164 -0.268127 -3.067488
									CHANNELS 3 Xrotation Yrotation Zrotation
									JOINT RightHandRing2
									{
										OFFSET -3.162567 0.000000 0.000000
										CHANNELS 3 Xrotation Yrotation Zrotation
										JOINT RightHandRing3
										{
											OFFSET -3.324348 0.000000 0.000000
											CHANNELS 3 Xrotation Yrotation Zrotation
											End Site
											{
												OFFSET 0.861900 3.184998 0.405154
											}
										}
									}
								}
								JOINT RightHandPinky1
								{
									OFFSET -13.131393 -0.168503 -5.746925
									CHANNELS 3 Xrotation Yrotation Zrotation
									JOINT RightHandPinky2
									{
										OFFSET -2.849182 0.000000 0.000000
										CHANNELS 3 Xrotation Yrotation Zrotation
										JOINT RightHandPinky3
										{
											OFFSET -2.805038 0.000000 0.000000
											CHANNELS 3 Xrotation Yrotation Zrotation
											End Site
											{
												OFFSET 0.882500 2.642609 0.325652
											}
										}
									}
								}
							}
							JOINT Right_Sleeve
							{
								OFFSET -6.592125 -0.646545 0.805568
								CHANNELS 3 Xrotation Yrotation Zrotation
								End Site
								{
									OFFSET 0.000179 20.275787 -0.000000
								}
							}
						}
					}
				}
				JOINT Bind_Right_JacketString
				{
					OFFSET -3.534800 11.969597 7.200700
					CHANNELS 3 Xrotation Yrotation Zrotation
					JOINT Bind_Right_JacketString1
					{
						OFFSET -0.319900 -6.102600 2.794100
						CHANNELS 3 Xrotation Yrotation Zrotation
						End Site
						{
							OFFSET 0.000000 6.719452 0.000000
						}
					}
				}
				JOINT Bind_Left_JacketString
				{
					OFFSET 2.904800 11.969597 7.200700
					CHANNELS 3 Xrotation Yrotation Zrotation
					JOINT Bind_Left_JacketString1
					{
						OFFSET 0.364800 -5.904503 3.186800
						CHANNELS 3 Xrotation Yrotation Zrotation
						End Site
						{
							OFFSET 0.000000 6.719513 0.000000
						}
					}
				}
				JOINT HairE
				{
					OFFSET 5.915200 17.612701 -11.592200
					CHANNELS 3 Xrotation Yrotation Zrotation
					JOINT HairE1
					{
						OFFSET 0.289200 -7.171898 -1.284500
						CHANNELS 3 Xrotation Yrotation Zrotation
						End Site
						{
							OFFSET 0.000000 7.291756 0.000000
						}
					}
				}
				JOINT HairF
				{
					OFFSET -0.864800 17.612701 -11.592200
					CHANNELS 3 Xrotation Yrotation Zrotation
					JOINT HairF1
					{
						OFFSET 0.000000 -14.087097 -2.127501
						CHANNELS 3 Xrotation Yrotation Zrotation
						End Site
						{
							OFFSET 0.000000 14.246841 0.000000
						}
					}
				}
				JOINT HairG
				{
					OFFSET -8.087700 17.612701 -11.592200
					CHANNELS 3 Xrotation Yrotation Zrotation
					JOINT HairG1
					{
						OFFSET -0.293600 -6.081398 -0.910100
						CHANNELS 3 Xrotation Yrotation Zrotation
						End Site
						{
							OFFSET 0.000000 6.156120 0.000000
						}
					}
				}
			}
		}
	}
	JOINT Pouch
	{
		OFFSET 0.000000 4.394501 10.847300
		CHANNELS 3 Xrotation Yrotation Zrotation
		End Site
		{
			OFFSET 0.000000 21.880577 0.000000
		}
	}
	JOINT Bag
	{
		OFFSET -13.229000 4.813004 -0.593300
		CHANNELS 3 Xrotation Yrotation Zrotation
		End Site
		{
			OFFSET 0.000000 21.880577 0.000000
		}
	}
	JOINT OccupyGuyFacialAnim_Joint
	{
		OFFSET 1.000000 -70.206398 -1.655000
		CHANNELS 3 Xrotation Yrotation Zrotation
		End Site
		{
			OFFSET 0.000000 21.880577 0.000000
		}
	}
}
MOTION
Frames: 4
Frame Time: 0.033333
-0.070106 68.882866 1.163168 -24.512396 -2.416209 -1.522812 -0.000001 -0.000000 -0.000000 7.348673 15.008572 13.534115 32.390041 7.344239 0.401230 -14.423891 1.204060 -8.351966 -0.000000 -0.000001 0.000000 -0.000000 0.000000 0.000002 7.207227 -13.871802 -10.311596 31.464810 -5.299912 -0.288882 -13.755027 -1.071424 7.738665 -0.000000 0.000000 0.000000 0.000002 0.000002 -0.000000 11.179589 -4.817208 -0.825943 3.545653 -2.400651 -0.151373 3.557026 -2.388376 -0.108335 1.551788 0.634300 -1.308390 -6.938528 0.762141 3.865455 0.000000 0.000000 0.000000 0.000000 0.000000 0.000000 0.000000 0.000000 0.000000 0.000000 0.000000 0.000000 -0.000001 0.000002 0.000000 0.000000 0.000000 0.000000 -0.000001 0.000002 0.000000 0.000000 0.000000 0.000000 0.000000 0.000000 0.000000 0.445070 -15.488176 -11.025447 -20.285399 3.054800 -36.773523 0.000021 -67.201883 0.000016 -41.639992 -11.471782 -7.743369 -22.783320 -14.798037 12.273461 3.104746 10.435611 14.815850 0.000001 0.000001 0.000001 1.968592 -2.875772 26.071491 3.265022 5.250322 -63.730426 -0.000000 0.000002 -0.000002 -0.918341 3.905203 20.820664 2.974883 5.097473 -60.513796 0.000001 0.000001 0.000004 -6.190611 13.399334 27.815698 3.764255 5.467486 -69.071927 -0.000000 0.000000 0.000000 -10.204763 21.361488 28.797816 0.278397 1.786126 -17.716442 -0.000001 -0.000000 0.000003 -0.000002 0.000001 -0.000000 0.064831 14.691496 14.953767 -12.069887 -6.923796 61.446595 0.000003 39.415632 0.000005 -1.892003 -4.118543 24.314828 -20.073106 16.089480 -24.921342 8.794325 -40.952756 -1.386071 -0.000002 -0.000001 0.000000 1.063116 -5.182567 38.505540 3.100485 -4.389824 70.453026 -0.000003 0.000001 -0.000001 2.946414 -6.593264 70.499860 0.642394 -2.362169 30.423141 0.000010 -0.000003 0.000001 5.948296 -7.199699 80.598582 0.322674 -1.704975 21.432118 0.000001 -0.000002 0.000001 1.932487 -22.479134 97.263314 1.111364 -3.021276 40.383995 0.000002 0.000002 -0.000003 -0.000000 -0.000001 0.000001 0.000000 0.000000 -0.000000 0.000000 0.000000 -0.000000 0.000000 0.000000 -0.000000 0.000000 0.000000 -0.000000 0.000000 0.000000 -0.000000 0.000000 0.000000 -0.000000 0.000000 0.000000 -0.000000 0.000000 0.000000 -0.000000 0.000000 0.000000 -0.000000 0.000000 0.000000 -0.000000 -0.000001 -0.000000 -0.000000 -0.000001 -0.000000 -0.000000 -0.000001 -0.000000 -0.000000 
-0.064254 68.893372 1.168400 -24.466588 -2.363371 -1.449088 0.000001 0.000000 -0.000000 7.357471 14.987790 13.456019 32.296345 7.312263 0.399443 -14.377184 1.202289 -8.323907 -0.000000 0.000001 -0.000000 0.000001 0.000001 0.000000 7.178116 -13.944712 -10.382969 31.421216 -5.286528 -0.288477 -13.742290 -1.075726 7.744431 -0.000000 0.000000 0.000000 -0.000000 -0.000001 -0.000000 11.124975 -4.864162 -0.885039 3.540678 -2.421377 -0.162861 3.552479 -2.408865 -0.119895 1.546300 0.637704 -1.304305 -6.990020 0.797601 3.850392 -0.000000 -0.000000 -0.000000 -0.000000 -0.000000 -0.000000 -0.000000 -0.000000 -0.000000 -0.000000 -0.000000 -0.000000 -0.000001 0.000002 0.000000 -0.000000 -0.000000 -0.000000 -0.000001 0.000002 0.000000 -0.000000 -0.000000 -0.000000 -0.000000 -0.000000 -0.000000 0.443471 -15.487720 -11.040591 -20.272886 3.158094 -36.731111 -0.000019 -67.285969 -0.000018 -41.563900 -11.384329 -7.697020 -22.783322 -14.798039 12.273462 3.101529 10.422304 14.818616 -0.000000 -0.000001 -0.000000 1.970227 -2.875980 26.086733 3.265011 5.250333 -63.730398 0.000001 0.000000 -0.000000 -0.918891 3.902677 20.841926 2.974884 5.097470 -60.513803 0.000000 0.000001 0.000006 -6.192299 13.400438 27.819741 3.760386 5.466016 -69.031267 -0.000001 0.000001 0.000000 -10.207824 21.358830 28.807009 0.278377 1.786156 -17.716442 0.000000 -0.000000 0.000003 0.000001 0.000000 -0.000000 0.062930 14.678538 14.978933 -12.235580 -6.871596 61.490861 -0.000002 39.117313 -0.000005 -1.773630 -4.029649 24.407087 -20.073108 16.089486 -24.921344 8.807337 -40.973475 -1.374553 0.000001 -0.000001 0.000000 1.063619 -5.182729 38.505290 3.100481 -4.389824 70.453012 -0.000002 0.000001 -0.000001 2.943289 -6.592150 70.492764 0.642395 -2.362174 30.423148 0.000002 -0.000001 0.000001 5.949596 -7.199723 80.603800 0.322907 -1.705580 21.440027 0.000001 -0.000001 0.000001 1.935859 -22.478957 97.266620 1.111359 -3.021265 40.383750 -0.000001 0.000004 -0.000001 0.000000 0.000001 0.000002 0.000000 -0.000001 -0.000000 0.000000 -0.000001 -0.000000 0.000000 -0.000001 -0.000000 0.000000 -0.000001 -0.000000 0.000000 -0.000001 -0.000000 0.000000 -0.000001 -0.000000 0.000000 -0.000001 -0.000000 0.000000 -0.000001 -0.000000 0.000000 -0.000001 -0.000000 0.000000 -0.000001 -0.000000 0.000001 0.000000 -0.000000 0.000001 0.000000 -0.000000 0.000001 0.000000 -0.000000 
-0.058125 68.901947 1.162533 -24.460653 -2.354671 -1.447125 0.000000 0.000000 0.000000 7.364119 15.009691 13.450789 32.248728 7.286626 0.399525 -14.350854 1.200542 -8.304205 0.000000 -0.000000 -0.000000 0.000001 0.000001 0.000001 7.200960 -13.944132 -10.375727 31.356958 -5.301391 -0.288953 -13.703187 -1.074382 7.748468 -0.000000 -0.000000 0.000000 -0.000000 -0.000001 -0.000001 11.131532 -4.868741 -0.883623 3.541235 -2.423726 -0.162931 3.553052 -2.411218 -0.119884 1.535008 0.638685 -1.307166 -7.051403 0.808142 3.835941 0.000000 -0.000001 -0.000000 0.000000 -0.000001 -0.000000 0.000000 -0.000001 -0.000000 0.000000 -0.000001 -0.000000 0.000000 -0.000001 -0.000000 0.000000 -0.000001 -0.000000 0.000000 -0.000001 -0.000000 0.000000 -0.000001 -0.000000 0.000000 -0.000001 -0.000000 0.441885 -15.482166 -11.056125 -20.278598 3.169399 -36.716638 0.000006 -67.306446 0.000025 -41.559478 -11.374744 -7.696798 -22.783322 -14.798044 12.273461 3.091301 10.379611 14.827497 -0.000003 0.000001 -0.000001 1.974049 -2.878066 26.126500 3.265017 5.250328 -63.730412 0.000000 -0.000000 -0.000002 -0.920302 3.896366 20.894525 2.974884 5.097470 -60.513803 0.000001 0.000001 0.000001 -6.196457 13.408503 27.820954 3.746764 5.460804 -68.888222 -0.000002 0.000001 -0.000005 -10.213061 21.354353 28.822821 0.278419 1.786157 -17.716430 -0.000000 -0.000000 0.000001 0.000001 0.000000 0.000000 0.062440 14.670471 14.987580 -12.240539 -6.857764 61.484598 -0.000010 39.121456 0.000008 -1.767705 -4.032416 24.410258 -20.073105 16.089484 -24.921340 8.812582 -40.981681 -1.369912 0.000001 -0.000002 -0.000002 1.063829 -5.183444 38.504194 3.100481 -4.389824 70.453019 0.000002 -0.000001 0.000000 2.934361 -6.588933 70.481009 0.642382 -2.362176 30.423182 0.000001 -0.000000 0.000001 5.952937 -7.199209 80.633696 0.323844 -1.707962 21.471497 0.000008 -0.000002 -0.000000 1.949605 -22.480249 97.301529 1.111324 -3.021255 40.383586 0.000001 0.000002 -0.000004 -0.000000 -0.000002 -0.000002 0.000001 0.000000 -0.000000 0.000001 0.000001 -0.000000 0.000001 0.000000 -0.000000 0.000001 0.000000 -0.000000 0.000001 0.000000 -0.000000 0.000001 0.000001 -0.000000 0.000001 0.000000 -0.000000 0.000001 0.000000 -0.000000 0.000001 0.000000 -0.000000 0.000001 0.000001 -0.000000 0.000000 0.000000 0.000000 0.000000 0.000000 0.000000 0.000000 0.000000 0.000000 
-0.052072 68.908508 1.148434 -24.466347 -2.373437 -1.478284 0.000001 0.000000 0.000000 7.366067 15.022521 13.466786 32.227626 7.303459 0.401268 -14.332361 1.197749 -8.299247 0.000000 -0.000001 0.000000 -0.000000 -0.000001 -0.000001 7.225690 -13.930817 -10.343804 31.293611 -5.297305 -0.288879 -13.654116 -1.070275 7.741149 -0.000000 0.000000 -0.000000 0.000002 0.000000 -0.000000 11.161610 -4.857940 -0.864721 3.546246 -2.419189 -0.162130 3.557910 -2.406828 -0.118970 1.518940 0.640576 -1.310026 -7.124812 0.834506 3.830228 -0.000000 -0.000001 0.000000 -0.000000 -0.000001 0.000000 -0.000000 -0.000001 0.000000 -0.000000 -0.000001 -0.000000 -0.000000 -0.000000 -0.000000 -0.000000 -0.000001 -0.000000 -0.000000 -0.000000 -0.000000 -0.000000 -0.000001 0.000000 -0.000000 -0.000001 0.000000 0.442107 -15.475745 -11.054769 -20.287477 3.151440 -36.719514 0.000037 -67.318891 0.000038 -41.577677 -11.390568 -7.702988 -22.783324 -14.798042 12.273463 3.089372 10.371580 14.829171 -0.000001 0.000003 -0.000003 1.972505 -2.878830 26.113256 3.265014 5.250322 -63.730405 0.000001 0.000002 0.000000 -0.919146 3.901527 20.851482 2.974885 5.097471 -60.513796 0.000001 0.000001 0.000003 -6.191415 13.406434 27.806936 3.757350 5.464854 -68.999411 -0.000001 0.000001 -0.000004 -10.200563 21.364598 28.784053 0.278372 1.786159 -17.716450 -0.000001 0.000000 0.000001 -0.000003 -0.000000 -0.000001 0.060162 14.687128 15.002423 -12.184201 -6.870049 61.444962 -0.000002 39.240513 0.000030 -1.820016 -4.063537 24.381124 -20.073108 16.089480 -24.921345 8.728773 -40.845511 -1.444825 -0.000000 -0.000001 0.000000 1.063305 -5.182786 38.501585 3.100485 -4.389826 70.453026 -0.000001 0.000000 0.000000 2.955438 -6.596317 70.467711 0.642376 -2.362172 30.423111 0.000005 -0.000002 -0.000001 5.953858 -7.200034 80.615268 0.323559 -1.707181 21.461149 -0.000002 0.000000 -0.000002 1.966784 -22.480823 97.334062 1.111301 -3.021217 40.382985 0.000000 0.000001 0.000001 -0.000000 -0.000002 0.000002 0.000000 0.000001 0.000000 0.000000 -0.000000 0.000000 0.000000 0.000001 0.000000 0.000000 0.000001 0.000000 0.000000 0.000001 0.000000 0.000000 -0.000000 0.000000 0.000000 0.000001 0.000000 0.000000 0.000001 0.000000 0.000000 0.000001 0.000000 0.000000 -0.000000 0.000000 0.000001 0.000000 0.000000 0.000001 0.000000 0.000000 0.000001 0.000000 0.000000 
